#!OML:ASF X:\für Bonn\!DataBase\2005_08_11_Bastian_Final\c3d\Bastian.ASF
:FULLY-SPECIFIED
:DEGREES
47
root -8.30671 17.2022 7.72653 899.899 38.2421 -168.507
lowerback 20.5093 -2.24309 3.44678
upperback 17.8685 0.906554 4.66555
thorax 8.25599 1.90297 3.26504
lowerneck -16.8365 -12.4893 -23.534
upperneck -6.38702 -12.4533 28.8603
head 4.74779 -4.62793 12.1662
rclavicle 4.25399e-014 -5.60573e-014
rhumerus -16.9245 14.0269 -82.7623
rradius 64.4612
rwrist 2.84997
rhand -15.7336 8.10675
rfingers 7.12502
rthumb 10.4571 -21.6132
lclavicle 4.25399e-014 -5.60573e-014
lhumerus -19.9804 -12.3832 90.4071
lradius 22.0976
lwrist 15.1207
lhand -12.7269 -9.94828
lfingers 7.12502
lthumb 13.3564 19.6036
rfemur 9.08904 -8.91303 30.5686
rtibia 35.9982
rfoot -16.2334 11.9465
rtoes -9.91634
lfemur -31.0356 -2.28409 -6.95212
ltibia 31.8967
lfoot 17.2041 -6.68762
ltoes -38.0384
48
root -8.23746 17.1843 7.64192 900.129 38.2701 -168.508
lowerback 20.289 -2.10974 3.27976
upperback 17.7658 0.995394 4.57772
thorax 8.23859 1.91461 3.24407
lowerneck -16.744 -12.4986 -23.4513
upperneck -6.43778 -12.4966 28.9628
head 4.73846 -4.65281 12.184
rclavicle -2.18663e-014 2.5842e-014
rhumerus -17.0609 14.0523 -82.9234
rradius 64.2387
rwrist 2.78096
rhand -15.6542 8.30479
rfingers 7.12502
rthumb 10.5338 -21.4113
lclavicle -2.18663e-014 2.5842e-014
lhumerus -19.9214 -11.8034 90.2374
lradius 21.9161
lwrist 14.8322
lhand -12.6902 -9.82914
lfingers 7.12502
lthumb 13.3919 19.7204
rfemur 9.30367 -8.87966 30.5148
rtibia 35.9331
rfoot -16.4019 12.1062
rtoes -10.0775
lfemur -31.1481 -2.23645 -6.97486
ltibia 32.0045
lfoot 17.0199 -6.40188
ltoes -37.1944
49
root -8.16745 17.1661 7.55514 900.38 38.2778 -168.482
lowerback 20.0524 -1.98459 3.14494
upperback 17.6637 1.07882 4.49096
thorax 8.23109 1.92732 3.20829
lowerneck -16.6161 -12.5114 -23.3704
upperneck -6.51721 -12.5474 29.0887
head 4.72046 -4.68363 12.2105
rclavicle 5.86415e-014 1.03368e-014
rhumerus -17.2157 14.0706 -83.1045
rradius 64.0253
rwrist 2.71915
rhand -15.6006 8.40642
rfingers 7.12502
rthumb 10.5855 -21.307
lclavicle 5.86415e-014 1.03368e-014
lhumerus -19.8403 -11.3177 90.0687
lradius 21.7353
lwrist 14.6818
lhand -12.6791 -9.74155
lfingers 7.12502
lthumb 13.4025 19.8073
rfemur 9.55052 -8.87268 30.4845
rtibia 35.7777
rfoot -16.5651 12.2715
rtoes -10.2414
lfemur -31.2505 -2.11429 -7.01134
ltibia 32.1388
lfoot 16.8118 -6.32174
ltoes -36.4823
50
root -8.09682 17.1506 7.46582 900.623 38.286 -168.49
lowerback 19.7859 -1.86125 3.0075
upperback 17.5706 1.15943 4.38336
thorax 8.25068 1.93995 3.15375
lowerneck -16.446 -12.5219 -23.3075
upperneck -6.64566 -12.591 29.2524
head 4.68611 -4.71298 12.2574
rclavicle -9.74045e-015 -4.05521e-014
rhumerus -17.3438 14.103 -83.2672
rradius 63.7588
rwrist 2.593
rhand -15.5609 8.57566
rfingers 7.12502
rthumb 10.6238 -21.1358
lclavicle -9.74045e-015 -4.05521e-014
lhumerus -19.7356 -10.8706 89.8835
lradius 21.57
lwrist 14.6409
lhand -12.6647 -9.61781
lfingers 7.12502
lthumb 13.4163 19.9302
rfemur 9.81043 -8.86944 30.4141
rtibia 35.5866
rfoot -16.696 12.45
rtoes -10.4005
lfemur -31.3571 -1.9906 -7.09975
ltibia 32.3816
lfoot 16.5486 -6.42954
ltoes -35.8676
51
root -8.02577 17.1358 7.37548 900.869 38.2739 -168.494
lowerback 19.5038 -1.75022 2.86082
upperback 17.504 1.23001 4.28209
thorax 8.31128 1.94909 3.11639
lowerneck -16.3453 -12.5389 -23.2379
upperneck -6.75716 -12.6298 29.4036
head 4.66441 -4.73399 12.2979
rclavicle -3.61788e-014 3.61788e-014
rhumerus -17.4375 14.1187 -83.4214
rradius 63.5013
rwrist 2.50144
rhand -15.5151 8.74272
rfingers 7.12502
rthumb 10.6679 -20.9665
lclavicle -3.61788e-014 3.61788e-014
lhumerus -19.5364 -10.305 89.6719
lradius 21.3711
lwrist 14.5413
lhand -12.6524 -9.56721
lfingers 7.12502
lthumb 13.4282 19.98
rfemur 10.081 -8.8708 30.3546
rtibia 35.373
rfoot -16.8165 12.59
rtoes -10.5915
lfemur -31.4666 -1.84717 -7.20129
ltibia 32.7295
lfoot 16.181 -6.67412
ltoes -34.8565
52
root -7.95385 17.1215 7.28289 901.085 38.2523 -168.537
lowerback 19.2361 -1.63881 2.68947
upperback 17.4185 1.29636 4.17332
thorax 8.34226 1.95234 3.08356
lowerneck -16.179 -12.5496 -23.1874
upperneck -6.88813 -12.6681 29.5572
head 4.62812 -4.7611 12.3444
rclavicle -3.81667e-014 4.45278e-014
rhumerus -17.5766 14.1601 -83.5733
rradius 63.2162
rwrist 2.4429
rhand -15.491 8.87062
rfingers 7.12502
rthumb 10.6912 -20.8374
lclavicle -3.81667e-014 4.45278e-014
lhumerus -19.406 -9.92677 89.502
lradius 21.2276
lwrist 14.6492
lhand -12.6903 -9.49247
lfingers 7.12502
lthumb 13.3917 20.0571
rfemur 10.3593 -8.87035 30.264
rtibia 35.1545
rfoot -16.9381 12.7169
rtoes -10.8119
lfemur -31.5562 -1.60074 -7.3963
ltibia 33.172
lfoot 15.6354 -7.1741
ltoes -33.5495
53
root -7.88202 17.1064 7.18896 901.322 38.2301 -168.549
lowerback 18.9672 -1.53233 2.54388
upperback 17.3587 1.36859 4.06726
thorax 8.40549 1.96427 3.04181
lowerneck -16.106 -12.5856 -23.1282
upperneck -6.97421 -12.7321 29.736
head 4.62927 -4.79125 12.3921
rclavicle -4.31363e-014 7.09661e-014
rhumerus -17.7023 14.1887 -83.6812
rradius 62.9763
rwrist 2.39864
rhand -15.4016 8.99801
rfingers 7.12502
rthumb 10.7774 -20.7055
lclavicle -4.31363e-014 7.09661e-014
lhumerus -19.156 -9.46816 89.2779
lradius 21.023
lwrist 14.7272
lhand -12.6709 -9.47544
lfingers 7.12502
lthumb 13.4104 20.0729
rfemur 10.6246 -8.83457 30.2111
rtibia 34.9476
rfoot -16.9956 12.8057
rtoes -10.9509
lfemur -31.6355 -1.34823 -7.57096
ltibia 33.6974
lfoot 14.9852 -7.72452
ltoes -31.7922
